<?xml version="1.0" encoding="UTF-8" standalone="no"?>
<svg
   version="1.1"
   style="display: block;"
   viewBox="0 0 2048 2048"
   width="2000"
   height="2000"
   preserveAspectRatio="none"
   id="svg16"
   sodipodi:docname="icon.svg"
   xml:space="preserve"
   inkscape:version="1.4.2 (f4327f4, 2025-05-13)"
   xmlns:inkscape="http://www.inkscape.org/namespaces/inkscape"
   xmlns:sodipodi="http://sodipodi.sourceforge.net/DTD/sodipodi-0.dtd"
   xmlns="http://www.w3.org/2000/svg"
   xmlns:svg="http://www.w3.org/2000/svg"><defs
     id="defs16" /><sodipodi:namedview
     id="namedview16"
     pagecolor="#ffffff"
     bordercolor="#000000"
     borderopacity="0.25"
     inkscape:showpageshadow="2"
     inkscape:pageopacity="0.0"
     inkscape:pagecheckerboard="0"
     inkscape:deskcolor="#d1d1d1"
     inkscape:zoom="0.20175"
     inkscape:cx="738.53779"
     inkscape:cy="691.44981"
     inkscape:window-width="1920"
     inkscape:window-height="1009"
     inkscape:window-x="266"
     inkscape:window-y="2152"
     inkscape:window-maximized="1"
     inkscape:current-layer="svg16" /><path
     fill="#de1113"
     d="m 553.1946,756.34093 c 200.2057,-1.91253 399.35342,5.24056 599.0599,5.86444 52.7412,0.29464 105.4824,-0.17825 158.2026,-1.41762 11.8484,-0.3565 74.0893,-6.59002 80.024,-0.78954 -0.011,1.97963 -0.4195,3.16761 -1.5624,4.74565 -7.9059,10.92886 -23.3927,19.5027 -34.4967,26.83719 -99.0024,65.32985 -288.598,124.86131 -404.68509,145.13363 -9.98413,2.19773 -20.6435,3.77262 -30.80168,5.41672 -91.97201,14.88182 -185.40986,19.45761 -278.47444,18.28011 -58.18934,-0.73607 -116.55798,-1.65563 -173.97142,-11.7467 -35.72663,-6.27862 -68.17661,-17.31861 -100.91703,-32.63872 -20.28071,-9.52381 -40.04764,-20.10665 -59.21795,-31.70446 -46.20777,-28.08599 -90.43486,-62.51559 -137.26021,-90.09723 -9.01633,-5.31082 -33.32865,-18.89351 -36.74686,-28.32191 1.22363,-7.52112 8.28026,-7.86084 14.68679,-8.00974 50.06112,-1.16491 100.11386,-0.16986 150.14981,-0.11743 z"
     id="path1"
     style="stroke-width:1.04853" /><path
     fill="#04459c"
     d="m 1458.405,1011.6103 c 7.2453,0.7088 12.0791,0.9206 19.3664,0.9458 34.2765,3.4937 68.5111,7.3104 102.7142,11.45 36.3841,4.5852 73.6699,10.0711 110.0225,14.0576 16.2732,1.7353 32.5674,3.2043 48.893,4.408 3.2819,0.238 26.7376,1.6819 28.604,2.2733 69.8742,4.6754 134.988,37.0047 180.9557,89.8309 46.45,52.5 58.4766,114.1212 56.799,182.3575 l -166.077,-1.1408 -736.0277,0.8839 -232.03909,0.1793 c -40.48802,0.025 -88.09348,1.2205 -128.14741,-0.4099 l -0.90488,-1.3296 c 6.34991,-5.9011 110.62015,-20.1653 125.59528,-21.7958 77.59244,-8.448 156.0174,-13.6938 233.7974,-20.8931 l 372.2395,-35.7109 99.7259,-8.5487 c 17.4895,-1.4302 35.0839,-2.5206 52.4895,-4.7026 15.6231,-1.9587 19.5132,-14.2412 18.7058,-28.1321 -0.734,-15.1681 -7.7172,-29.3558 -19.272,-39.2026 -5.7355,-4.9795 -19.5761,-12.5509 -26.4125,-15.8255 -49.9207,-23.9044 -105.6921,-27.5229 -159.9956,-23.506 1.2373,-10.1854 4.4143,-25.0578 6.3436,-35.5599 4.3305,-23.1883 8.5351,-46.3975 12.6244,-69.6288 z"
     id="path2"
     style="stroke-width:1.04853" /><path
     fill="#19b5e9"
     d="m 1768.0051,1044.745 c 69.8742,4.6754 134.988,37.0047 180.9557,89.8309 46.45,52.5 58.4766,114.1212 56.799,182.3575 l -166.077,-1.1408 c -0.5033,-8.7458 -4.2256,-23.9002 -6.5324,-32.7907 -12.2154,-46.8621 -30.0929,-78.7836 -63.3943,-113.3831 -4.6659,-21.4036 -10.2965,-107.9684 -1.751,-124.8738 z"
     id="path3"
     style="stroke-width:1.04853" /><path
     fill="#0d83d0"
     d="m 1477.7714,1012.5561 c 34.2765,3.4937 68.5111,7.3104 102.7142,11.45 36.3841,4.5852 73.6699,10.0711 110.0225,14.0576 16.2732,1.7353 32.5674,3.2043 48.893,4.408 3.2819,0.238 26.7376,1.6819 28.604,2.2733 -8.5455,16.9054 -2.9149,103.4702 1.751,124.8738 -73.565,-71.6158 -171.3826,-86.9107 -269.8502,-87.8827 -19.0414,-27.3017 -19.4188,-37.3456 -22.1345,-69.18 z"
     id="path4"
     style="stroke-width:1.04853" /><path
     fill="#04459c"
     d="m 168.51119,1093.853 c -38.69818,-28.0672 -77.682604,-56.237 -118.316382,-81.4553 -3.787298,-2.3497 -16.668517,-9.3738 -18.118637,-12.44394 3.726484,-3.35425 55.771435,0.42364 64.870595,0.66684 110.541514,2.1464 221.109244,2.506 331.662284,1.0769 128.41584,2.3843 260.12197,1.5361 388.8681,2.441 l 104.14337,0.433 c 12.51423,0.041 43.41762,-0.4834 54.57505,0.7497 8.35678,-0.091 56.96663,-2.549 61.10833,-0.1258 l 0.1364,2.1096 c -8.6714,8.9105 -64.66294,38.3333 -78.0202,45.0135 -40.51109,19.8707 -81.88407,37.9327 -123.99732,54.1326 -121.90655,48.2492 -242.88935,83.7389 -375.11345,85.534 -89.97875,1.2205 -163.14533,-13.3426 -239.77626,-61.6841 -14.98981,-9.4557 -39.03685,-24.695 -52.02188,-36.448 z"
     id="path5"
     style="stroke-width:1.04853" /><path
     fill="#0d83d0"
     d="m 428.60905,1001.6975 c 128.41584,2.3843 260.12197,1.5361 388.8681,2.441 l 104.14337,0.433 c 12.51423,0.041 43.41762,-0.4834 54.57505,0.7497 2.32774,8.6535 17.95088,2.4011 25.57363,6.8176 l 0.2517,1.6262 c -7.90595,6.6152 -40.57398,17.3071 -51.65068,20.7662 -86.37074,26.9703 -175.93008,41.1108 -265.59636,51.7314 -61.16088,7.6008 -122.63108,12.4744 -184.22606,14.605 -20.47469,0.5893 -58.24177,3.0523 -76.67287,0.046 6.0364,-0.5138 16.36968,-0.086 22.75105,0 0.0535,-14.3995 -0.36384,-26.3203 -3.70551,-40.4398 -4.80647,-20.3027 -12.28356,-37.8373 -14.31142,-58.7744 z"
     id="path6"
     style="stroke-width:1.04853" /><path
     fill="#19b5e9"
     d="m 168.51119,1093.853 c -38.69818,-28.0672 -77.682604,-56.237 -118.316382,-81.4553 -3.787298,-2.3497 -16.668517,-9.3738 -18.118637,-12.44394 3.726484,-3.35425 55.771435,0.42364 64.870595,0.66684 110.541514,2.1464 221.109244,2.506 331.662284,1.0769 2.02786,20.9371 9.50495,38.4717 14.31142,58.7744 3.34167,14.1195 3.75898,26.0403 3.70551,40.4398 -6.38137,-0.084 -16.71465,-0.5117 -22.75105,0 -32.24447,-0.05 -243.23012,-12.2563 -255.36374,-7.0608 z"
     id="path7"
     style="stroke-width:1.04853" /><path
     fill="#19b5e9"
     d="m 930.52046,1104.5249 c 6.01438,-2.6842 12.01094,-5.9567 17.94772,-8.8538 153.37292,-74.8526 302.70492,-160.62149 428.84332,-276.88798 47.2049,-43.51619 87.4371,-91.7969 131.2028,-138.271 1.3526,-1.43753 2.7996,-0.94367 4.2256,-0.55257 3.5336,14.40998 -49.627,97.01125 -60.7834,112.35442 -16.766,23.04045 -38.2295,53.43845 -57.3233,74.72575 -25.9511,34.31112 -67.473,74.49507 -99.3169,103.10007 -140.1364,125.35621 -304.27355,220.93311 -482.46842,280.93111 -37.29524,-41.4338 -130.54017,-12.035 -139.21887,-30.2155 1.2509,-3.607 6.98323,-6.1895 10.78206,-10.4728 l -0.21285,-3.1414 c 47.84033,-16.7125 95.11131,-35.0115 141.73534,-54.8665 35.92691,-15.5026 69.30693,-31.9278 104.5869,-47.8498 z"
     id="path8"
     style="stroke-width:1.04853" /><path
     fill="#0d83d0"
     d="m 930.52046,1104.5249 c 1.45746,2.5291 2.90234,5.0906 4.49925,7.5358 4.66073,7.1363 9.83523,11.9722 18.43425,13.5261 51.31404,9.2763 218.02014,-78.0601 264.22894,-106.2436 29.3799,-17.6719 57.2918,-37.68738 83.4527,-59.85125 18.5486,-15.78041 36.2688,-32.52023 53.0662,-50.15339 8.619,-9.05513 31.2673,-36.71331 40.4314,-42.29884 -25.9511,34.31112 -67.473,74.49507 -99.3169,103.10007 -140.1364,125.35621 -304.27355,220.93311 -482.46842,280.93111 -37.29524,-41.4338 -130.54017,-12.035 -139.21887,-30.2155 1.2509,-3.607 6.98323,-6.1895 10.78206,-10.4728 l -0.21285,-3.1414 c 47.84033,-16.7125 95.11131,-35.0115 141.73534,-54.8665 35.92691,-15.5026 69.30693,-31.9278 104.5869,-47.8498 z"
     id="path9"
     style="stroke-width:1.04853" /><path
     fill="#de1113"
     d="m 1490.4901,815.71302 c 74.4982,-1.89156 142.5584,1.54134 212.852,28.57879 75.5153,29.04434 143.0408,100.84783 174.7903,175.34819 l -23.7178,-4.9512 c -128.1306,-27.47366 -257.8445,-46.96378 -388.3973,-58.35713 2.6633,-36.32325 14.5641,-105.75601 24.4728,-140.61865 z"
     id="path10"
     style="stroke-width:1.04853" /><path
     fill="#19b5e9"
     d="m 1304.8474,1027.7535 c 26.077,-25.9617 50.5393,-53.50136 73.24,-82.46497 5.5258,-7.15833 25.4269,-38.32175 28.8766,-40.44293 l 3.4287,1.07055 c 1.4889,38.06067 -9.6255,79.46721 -18.3284,116.22565 -8.4092,34.0709 -16.3046,68.2646 -23.6968,102.5705 -3.0617,12.7921 -13.3059,62.9591 -24.3259,67.9585 -14.3335,6.5062 -50.2352,10.3281 -67.5884,13.2042 -59.1372,9.8017 -118.1381,18.1312 -177.7787,23.9621 -21.044,2.0572 -45.8837,5.5079 -66.7495,6.6456 -8.2729,1.8653 -70.22539,7.7822 -75.01089,4.0683 2.92646,-5.53 50.71639,-22.8412 59.47169,-26.2783 4.8442,-3.1813 23.6968,-10.9729 29.988,-13.7798 16.5038,-7.3303 32.7666,-15.1943 48.7567,-23.5805 9.5207,-4.9952 20.2262,-10.824 29.3274,-15.966 7.9165,-4.4709 36.4156,-24.5451 42.8326,-25.9815 6.5219,-3.4025 23.571,-15.0612 29.7154,-19.5132 34.4967,-24.997 78.0213,-57.6683 107.8415,-87.6982 z"
     id="path11"
     style="stroke-width:1.04853" /><path
     fill="#0d83d0"
     d="m 1304.8474,1027.7535 c 26.077,-25.9617 50.5393,-53.50136 73.24,-82.46497 5.5258,-7.15833 25.4269,-38.32175 28.8766,-40.44293 l 3.4287,1.07055 c 1.4889,38.06067 -9.6255,79.46721 -18.3284,116.22565 -8.4092,34.0709 -16.3046,68.2646 -23.6968,102.5705 -28.0273,-0.4163 -41.1654,-4.5475 -66.2987,-17.1917 -5.2741,2.8981 -10.3385,6.698 -15.3085,10.154 -27.545,19.1556 -55.9078,37.6035 -85.7805,53.0012 -9.5416,-14.452 -20.677,-24.5808 -33.6893,-35.7109 6.5219,-3.4025 23.571,-15.0612 29.7154,-19.5132 34.4967,-24.997 78.0213,-57.6683 107.8415,-87.6982 z"
     id="path12"
     style="stroke-width:1.04853" /><path
     fill="#19b5e9"
     d="m 1304.8474,1027.7535 c 26.077,-25.9617 50.5393,-53.50136 73.24,-82.46497 5.5258,-7.15833 25.4269,-38.32175 28.8766,-40.44293 l 3.4287,1.07055 c -3.8691,3.27037 -4.9805,2.80063 -4.991,8.14395 -0.01,10.40563 -4.8233,20.74835 -7.5704,30.66956 -13.1801,43.70807 -29.8203,75.08124 -55.6981,112.36914 -26.3286,-12.5227 -19.3139,-12.8278 -37.2858,-29.3453 z"
     id="path13"
     style="stroke-width:1.04853" /><path
     fill="#04459c"
     d="m 1016.3858,1214.2727 c 4.8442,-3.1813 23.6968,-10.9729 29.988,-13.7798 16.5038,-7.3303 32.7666,-15.1943 48.7567,-23.5805 9.5207,-4.9952 20.2262,-10.824 29.3274,-15.966 7.9165,-4.4709 36.4156,-24.5451 42.8326,-25.9815 13.0123,11.1301 24.1477,21.2589 33.6893,35.7109 l -11.5653,5.1713 c -24.2001,17.5221 -105.8703,45.2096 -136.456,54.0194 -8.1575,2.3466 -17.5419,3.436 -22.449,4.969 l 1.0799,1.7877 -0.713,-0.5327 1.0486,0.3922 c -8.2729,1.8653 -70.22539,7.7822 -75.01089,4.0683 2.92646,-5.53 50.71639,-22.8412 59.47169,-26.2783 z"
     id="path14"
     style="stroke-width:1.04853" /><path
     fill="#0d83d0"
     d="m 1016.3858,1214.2727 c 10.3909,0.7811 26.7165,-1.8832 37.3172,-3.5535 29.6839,-4.5328 59.0219,-11.0945 87.8041,-19.64 15.0988,-4.4951 32.2423,-11.1774 46.8065,-14.9542 l 1.1009,-0.2779 c -24.2001,17.5221 -105.8703,45.2096 -136.456,54.0194 -8.1575,2.3466 -17.5419,3.436 -22.449,4.969 l 1.0799,1.7877 -0.713,-0.5327 1.0486,0.3922 c -8.2729,1.8653 -70.22539,7.7822 -75.01089,4.0683 2.92646,-5.53 50.71639,-22.8412 59.47169,-26.2783 z"
     id="path15"
     style="stroke-width:1.04853" /><path
     fill="#04459c"
     d="m 812.84788,1251.0709 c -6.7515,4.0201 -46.08823,14.9437 -55.1161,17.7034 -131.21332,40.1137 -267.11673,61.9054 -402.85866,81.2665 l -91.32506,12.6349 c -10.87118,1.4994 -61.09797,10.5587 -67.93965,4.8022 l 0.63436,-2.0027 c 7.97199,-6.4904 30.89081,-11.0515 41.69489,-14.3019 l 92.14396,-27.6928 c 82.76799,-25.0778 165.15641,-51.3949 247.1359,-78.943 l 65.61505,-22.1188 c 12.22903,-4.1605 28.40579,-9.1945 39.86939,-14.4781 l 1.49626,-0.6994 0.21285,3.1414 c -3.79883,4.2833 -9.53116,6.8658 -10.78206,10.4728 8.6787,18.1805 101.92363,-11.2183 139.21887,30.2155 z"
     id="path16"
     style="stroke-width:1.04853" /></svg>
