<?xml version="1.0" encoding="UTF-8" standalone="no"?>
<svg
   version="1.1"
   style="display: block;"
   viewBox="0 0 2048 2048"
   width="2000"
   height="2000"
   preserveAspectRatio="none"
   id="svg16"
   sodipodi:docname="logo - alt.svg"
   xml:space="preserve"
   inkscape:version="1.4.2 (f4327f4, 2025-05-13)"
   xmlns:inkscape="http://www.inkscape.org/namespaces/inkscape"
   xmlns:sodipodi="http://sodipodi.sourceforge.net/DTD/sodipodi-0.dtd"
   xmlns="http://www.w3.org/2000/svg"
   xmlns:svg="http://www.w3.org/2000/svg"><defs
     id="defs16" /><sodipodi:namedview
     id="namedview16"
     pagecolor="#ffffff"
     bordercolor="#000000"
     borderopacity="0.25"
     inkscape:showpageshadow="2"
     inkscape:pageopacity="0.0"
     inkscape:pagecheckerboard="0"
     inkscape:deskcolor="#d1d1d1"
     inkscape:zoom="0.20175"
     inkscape:cx="1226.7658"
     inkscape:cy="185.87361"
     inkscape:window-width="1920"
     inkscape:window-height="1009"
     inkscape:window-x="266"
     inkscape:window-y="2152"
     inkscape:window-maximized="1"
     inkscape:current-layer="svg16" /><path
     transform="translate(0,0)"
     fill="rgb(222,17,19)"
     d="M 605.208 434.5 C 796.147 432.676 986.077 439.498 1176.54 440.093 C 1226.84 440.374 1277.14 439.923 1327.42 438.741 C 1338.72 438.401 1398.08 432.456 1403.74 437.988 C 1403.73 439.876 1403.34 441.009 1402.25 442.514 C 1394.71 452.937 1379.94 461.114 1369.35 468.109 C 1274.93 530.415 1094.11 587.191 983.396 606.525 C 973.874 608.621 963.708 610.123 954.02 611.691 C 866.305 625.884 777.192 630.248 688.435 629.125 C 632.939 628.423 577.272 627.546 522.516 617.922 C 488.443 611.934 457.495 601.405 426.27 586.794 C 406.928 577.711 388.076 567.618 369.793 556.557 C 325.724 529.771 283.544 496.935 238.886 470.63 C 230.287 465.565 207.1 452.611 203.84 443.619 C 205.007 436.446 211.737 436.122 217.847 435.98 C 265.591 434.869 313.327 435.818 361.047 435.868 L 605.208 434.5 z"
     id="path1"
     style="fill:#ffd700;fill-opacity:1" /><path
     transform="translate(0,0)"
     fill="rgb(4,69,156)"
     d="M 1468.52 677.954 C 1475.43 678.63 1480.04 678.832 1486.99 678.856 C 1519.68 682.188 1552.33 685.828 1584.95 689.776 C 1619.65 694.149 1655.21 699.381 1689.88 703.183 C 1705.4 704.838 1720.94 706.239 1736.51 707.387 C 1739.64 707.614 1762.01 708.991 1763.79 709.555 C 1830.43 714.014 1892.53 744.847 1936.37 795.228 C 1980.67 845.298 1992.14 904.067 1990.54 969.145 L 1832.15 968.057 L 1130.19 968.9 L 908.891 969.071 C 870.277 969.095 824.875 970.235 786.675 968.68 L 785.812 967.412 C 791.868 961.784 891.312 948.18 905.594 946.625 C 979.595 938.568 1054.39 933.565 1128.57 926.699 L 1483.58 892.641 L 1578.69 884.488 C 1595.37 883.124 1612.15 882.084 1628.75 880.003 C 1643.65 878.135 1647.36 866.421 1646.59 853.173 C 1645.89 838.707 1639.23 825.176 1628.21 815.785 C 1622.74 811.036 1609.54 803.815 1603.02 800.692 C 1555.41 777.894 1502.22 774.443 1450.43 778.274 C 1451.61 768.56 1454.64 754.376 1456.48 744.36 C 1460.61 722.245 1464.62 700.11 1468.52 677.954 z"
     id="path2"
     style="fill:#1180c4;fill-opacity:1" /><path
     transform="translate(0,0)"
     fill="rgb(25,181,233)"
     d="M 1763.79 709.555 C 1830.43 714.014 1892.53 744.847 1936.37 795.228 C 1980.67 845.298 1992.14 904.067 1990.54 969.145 L 1832.15 968.057 C 1831.67 959.716 1828.12 945.263 1825.92 936.784 C 1814.27 892.091 1797.22 861.647 1765.46 828.649 C 1761.01 808.236 1755.64 725.678 1763.79 709.555 z"
     id="path3"
     style="fill:#5eebff;fill-opacity:1" /><path
     transform="translate(0,0)"
     fill="rgb(13,131,208)"
     d="M 1486.99 678.856 C 1519.68 682.188 1552.33 685.828 1584.95 689.776 C 1619.65 694.149 1655.21 699.381 1689.88 703.183 C 1705.4 704.838 1720.94 706.239 1736.51 707.387 C 1739.64 707.614 1762.01 708.991 1763.79 709.555 C 1755.64 725.678 1761.01 808.236 1765.46 828.649 C 1695.3 760.348 1602.01 745.761 1508.1 744.834 C 1489.94 718.796 1489.58 709.217 1486.99 678.856 z"
     id="path4"
     style="fill:#27c7f3;fill-opacity:1" /><path
     transform="translate(0,0)"
     fill="rgb(4,69,156)"
     d="M 238.33 756.39 C 201.423 729.622 164.243 702.756 125.49 678.705 C 121.878 676.464 109.593 669.765 108.21 666.837 C 111.764 663.638 161.4 667.241 170.078 667.473 C 275.503 669.52 380.953 669.863 486.389 668.5 C 608.861 670.774 734.471 669.965 857.258 670.828 L 956.581 671.241 C 968.516 671.28 997.989 670.78 1008.63 671.956 C 1016.6 671.869 1062.96 669.525 1066.91 671.836 L 1067.04 673.848 C 1058.77 682.346 1005.37 710.407 992.631 716.778 C 953.995 735.729 914.537 752.955 874.373 768.405 C 758.109 814.421 642.726 848.268 516.622 849.98 C 430.808 851.144 361.028 837.255 287.944 791.151 C 273.648 782.133 250.714 767.599 238.33 756.39 z"
     id="path5"
     style="fill:#1180c4;fill-opacity:1" /><path
     transform="translate(0,0)"
     fill="rgb(13,131,208)"
     d="M 486.389 668.5 C 608.861 670.774 734.471 669.965 857.258 670.828 L 956.581 671.241 C 968.516 671.28 997.989 670.78 1008.63 671.956 C 1010.85 680.209 1025.75 674.246 1033.02 678.458 L 1033.26 680.009 C 1025.72 686.318 994.564 696.515 984 699.814 C 901.627 725.536 816.213 739.022 730.697 749.151 C 672.367 756.4 613.742 761.048 554.998 763.08 C 535.471 763.642 499.452 765.991 481.874 763.124 C 487.631 762.634 497.486 763.042 503.572 763.122 C 503.623 749.389 503.225 738.02 500.038 724.554 C 495.454 705.191 488.323 688.468 486.389 668.5 z"
     id="path6"
     style="fill:#27c7f3;fill-opacity:1" /><path
     transform="translate(0,0)"
     fill="rgb(25,181,233)"
     d="M 238.33 756.39 C 201.423 729.622 164.243 702.756 125.49 678.705 C 121.878 676.464 109.593 669.765 108.21 666.837 C 111.764 663.638 161.4 667.241 170.078 667.473 C 275.503 669.52 380.953 669.863 486.389 668.5 C 488.323 688.468 495.454 705.191 500.038 724.554 C 503.225 738.02 503.623 749.389 503.572 763.122 C 497.486 763.042 487.631 762.634 481.874 763.124 C 451.122 763.076 249.902 751.435 238.33 756.39 z"
     id="path7"
     style="fill:#5eebff;fill-opacity:1" /><path
     transform="translate(0,0)"
     fill="rgb(25,181,233)"
     d="M 965.069 766.568 C 970.805 764.008 976.524 760.887 982.186 758.124 C 1128.46 686.736 1270.88 604.937 1391.18 494.052 C 1436.2 452.55 1474.57 406.504 1516.31 362.181 C 1517.6 360.81 1518.98 361.281 1520.34 361.654 C 1523.71 375.397 1473.01 454.175 1462.37 468.808 C 1446.38 490.782 1425.91 519.773 1407.7 540.075 C 1382.95 572.798 1343.35 611.122 1312.98 638.403 C 1179.33 757.957 1022.79 849.11 852.843 906.331 C 817.274 866.815 728.345 894.853 720.068 877.514 C 721.261 874.074 726.728 871.611 730.351 867.526 L 730.148 864.53 C 775.774 848.591 820.857 831.139 865.323 812.203 C 899.587 797.418 931.422 781.753 965.069 766.568 z"
     id="path8"
     style="fill:#5eebff;fill-opacity:1" /><path
     transform="translate(0,0)"
     fill="rgb(13,131,208)"
     d="M 965.069 766.568 C 966.459 768.98 967.837 771.423 969.36 773.755 C 973.805 780.561 978.74 785.173 986.941 786.655 C 1035.88 795.502 1194.87 712.208 1238.94 685.329 C 1266.96 668.475 1293.58 649.386 1318.53 628.248 C 1336.22 613.198 1353.12 597.233 1369.14 580.416 C 1377.36 571.78 1398.96 545.402 1407.7 540.075 C 1382.95 572.798 1343.35 611.122 1312.98 638.403 C 1179.33 757.957 1022.79 849.11 852.843 906.331 C 817.274 866.815 728.345 894.853 720.068 877.514 C 721.261 874.074 726.728 871.611 730.351 867.526 L 730.148 864.53 C 775.774 848.591 820.857 831.139 865.323 812.203 C 899.587 797.418 931.422 781.753 965.069 766.568 z"
     id="path9"
     style="fill:#27c7f3;fill-opacity:1" /><path
     transform="translate(0,0)"
     fill="rgb(222,17,19)"
     d="M 1499.12 491.124 C 1570.17 489.32 1635.08 492.594 1702.12 518.38 C 1774.14 546.08 1838.54 614.56 1868.82 685.612 L 1846.2 680.89 C 1724 654.688 1600.29 636.1 1475.78 625.234 C 1478.32 590.592 1489.67 524.373 1499.12 491.124 z"
     id="path10"
     style="fill:#ffd700;fill-opacity:1" /><path
     transform="translate(0,0)"
     fill="rgb(25,181,233)"
     d="M 1322.07 693.35 C 1346.94 668.59 1370.27 642.325 1391.92 614.702 C 1397.19 607.875 1416.17 578.154 1419.46 576.131 L 1422.73 577.152 C 1424.15 613.451 1413.55 652.941 1405.25 687.998 C 1397.23 720.492 1389.7 753.103 1382.65 785.821 C 1379.73 798.021 1369.96 845.866 1359.45 850.634 C 1345.78 856.839 1311.54 860.484 1294.99 863.227 C 1238.59 872.575 1182.32 880.519 1125.44 886.08 C 1105.37 888.042 1081.68 891.333 1061.78 892.418 C 1053.89 894.197 994.805 899.84 990.241 896.298 C 993.032 891.024 1038.61 874.514 1046.96 871.236 C 1051.58 868.202 1069.56 860.771 1075.56 858.094 C 1091.3 851.103 1106.81 843.603 1122.06 835.605 C 1131.14 830.841 1141.35 825.282 1150.03 820.378 C 1157.58 816.114 1184.76 796.969 1190.88 795.599 C 1197.1 792.354 1213.36 781.235 1219.22 776.989 C 1252.12 753.149 1293.63 721.99 1322.07 693.35 z"
     id="path11"
     style="fill:#5eebff;fill-opacity:1" /><path
     transform="translate(0,0)"
     fill="rgb(13,131,208)"
     d="M 1322.07 693.35 C 1346.94 668.59 1370.27 642.325 1391.92 614.702 C 1397.19 607.875 1416.17 578.154 1419.46 576.131 L 1422.73 577.152 C 1424.15 613.451 1413.55 652.941 1405.25 687.998 C 1397.23 720.492 1389.7 753.103 1382.65 785.821 C 1355.92 785.424 1343.39 781.484 1319.42 769.425 C 1314.39 772.189 1309.56 775.813 1304.82 779.109 C 1278.55 797.378 1251.5 814.972 1223.01 829.657 C 1213.91 815.874 1203.29 806.214 1190.88 795.599 C 1197.1 792.354 1213.36 781.235 1219.22 776.989 C 1252.12 753.149 1293.63 721.99 1322.07 693.35 z"
     id="path12"
     style="fill:#27c7f3;fill-opacity:1" /><path
     transform="translate(0,0)"
     fill="rgb(25,181,233)"
     d="M 1322.07 693.35 C 1346.94 668.59 1370.27 642.325 1391.92 614.702 C 1397.19 607.875 1416.17 578.154 1419.46 576.131 L 1422.73 577.152 C 1419.04 580.271 1417.98 579.823 1417.97 584.919 C 1417.96 594.843 1413.37 604.707 1410.75 614.169 C 1398.18 655.854 1382.31 685.775 1357.63 721.337 C 1332.52 709.394 1339.21 709.103 1322.07 693.35 z"
     id="path13"
     style="fill:#5eebff;fill-opacity:1" /><path
     transform="translate(0,0)"
     fill="rgb(4,69,156)"
     d="M 1046.96 871.236 C 1051.58 868.202 1069.56 860.771 1075.56 858.094 C 1091.3 851.103 1106.81 843.603 1122.06 835.605 C 1131.14 830.841 1141.35 825.282 1150.03 820.378 C 1157.58 816.114 1184.76 796.969 1190.88 795.599 C 1203.29 806.214 1213.91 815.874 1223.01 829.657 L 1211.98 834.589 C 1188.9 851.3 1111.01 877.706 1081.84 886.108 C 1074.06 888.346 1065.11 889.385 1060.43 890.847 L 1061.46 892.552 L 1060.78 892.044 L 1061.78 892.418 C 1053.89 894.197 994.805 899.84 990.241 896.298 C 993.032 891.024 1038.61 874.514 1046.96 871.236 z"
     id="path14"
     style="fill:#1180c4;fill-opacity:1" /><path
     transform="translate(0,0)"
     fill="rgb(13,131,208)"
     d="M 1046.96 871.236 C 1056.87 871.981 1072.44 869.44 1082.55 867.847 C 1110.86 863.524 1138.84 857.266 1166.29 849.116 C 1180.69 844.829 1197.04 838.456 1210.93 834.854 L 1211.98 834.589 C 1188.9 851.3 1111.01 877.706 1081.84 886.108 C 1074.06 888.346 1065.11 889.385 1060.43 890.847 L 1061.46 892.552 L 1060.78 892.044 L 1061.78 892.418 C 1053.89 894.197 994.805 899.84 990.241 896.298 C 993.032 891.024 1038.61 874.514 1046.96 871.236 z"
     id="path15"
     style="fill:#27c7f3;fill-opacity:1" /><path
     transform="translate(0,0)"
     fill="rgb(4,69,156)"
     d="M 852.843 906.331 C 846.404 910.165 808.888 920.583 800.278 923.215 C 675.138 961.472 545.525 982.255 416.066 1000.72 L 328.968 1012.77 C 318.6 1014.2 270.698 1022.84 264.173 1017.35 L 264.778 1015.44 C 272.381 1009.25 294.239 1004.9 304.543 1001.8 L 392.422 975.389 C 471.359 951.472 549.934 926.373 628.119 900.1 L 690.697 879.005 C 702.36 875.037 717.788 870.236 728.721 865.197 L 730.148 864.53 L 730.351 867.526 C 726.728 871.611 721.261 874.074 720.068 877.514 C 728.345 894.853 817.274 866.815 852.843 906.331 z"
     id="path16"
     style="fill:#1180c4;fill-opacity:1" /><text
     xml:space="preserve"
     style="font-size:307.2px;line-height:0;text-align:start;letter-spacing:30.72px;writing-mode:lr-tb;direction:ltr;text-anchor:start;opacity:1;fill:#0a0f29;fill-opacity:1;stroke-width:1.024"
     x="121.97483"
     y="1355.1824"
     id="text16"><tspan
       sodipodi:role="line"
       id="tspan16"
       style="font-style:normal;font-variant:normal;font-weight:800;font-stretch:normal;font-size:307.2px;line-height:0;font-family:Inter;-inkscape-font-specification:'Inter Ultra-Bold';letter-spacing:30.72px;fill:#ffffff;fill-opacity:1;stroke-width:1.024"
       x="121.97483"
       y="1355.1824">SMARTRIP</tspan></text></svg>
